<?xml version="1.0" standalone="no"?>
<!DOCTYPE svg PUBLIC "-//W3C//DTD SVG 20010904//EN"
 "http://www.w3.org/TR/2001/REC-SVG-20010904/DTD/svg10.dtd">
<svg version="1.0" xmlns="http://www.w3.org/2000/svg"
 width="1000.000000pt" height="228.000000pt" viewBox="0 0 1000.000000 228.000000"
 preserveAspectRatio="xMidYMid meet">

<g transform="translate(0.000000,228.000000) scale(0.100000,-0.100000)"
fill="#000000" stroke="none">
<path d="M4285 1528 c-3 -7 -4 -153 -3 -323 l3 -310 50 0 50 0 0 320 0 320
-48 3 c-32 2 -49 -1 -52 -10z"/>
<path d="M5865 1528 c-3 -7 -4 -153 -3 -323 l3 -310 50 0 50 0 5 184 5 184 35
13 c50 18 85 17 109 -3 20 -17 21 -29 23 -198 l3 -180 50 0 50 0 0 190 c0 238
-10 262 -114 286 -32 7 -103 -1 -143 -16 -15 -6 -18 3 -20 87 l-3 93 -48 3
c-32 2 -49 -1 -52 -10z"/>
<path d="M6865 1528 c-3 -7 -4 -153 -3 -323 l3 -310 50 0 50 0 0 320 0 320
-48 3 c-32 2 -49 -1 -52 -10z"/>
<path d="M7377 1534 c-4 -4 -7 -43 -7 -87 l0 -79 -43 6 c-95 14 -194 -30 -223
-100 -34 -81 -25 -260 14 -314 49 -66 123 -87 250 -69 124 17 113 -17 110 337
l-3 307 -45 3 c-25 2 -49 0 -53 -4z m-7 -404 l0 -160 -59 0 c-49 0 -65 4 -88
24 -28 24 -28 26 -28 136 0 110 0 112 28 136 23 20 39 24 88 24 l59 0 0 -160z"/>
<path d="M1657 1524 c-11 -11 -8 -474 4 -524 20 -89 66 -115 205 -113 135 1
146 5 142 51 l-3 37 -107 5 c-58 3 -110 9 -115 13 -4 5 -10 126 -13 270 l-5
262 -50 3 c-28 2 -54 0 -58 -4z"/>
<path d="M2206 1369 c-53 -13 -93 -43 -118 -92 -19 -36 -22 -58 -22 -147 0
-118 18 -170 73 -209 66 -47 186 -47 253 0 54 39 72 91 72 209 0 89 -3 111
-22 147 -26 50 -64 79 -123 92 -51 12 -61 12 -113 0z m92 -90 c43 -15 62 -61
62 -149 0 -45 -6 -85 -16 -105 -32 -67 -126 -67 -158 -1 -21 45 -21 167 0 211
9 19 28 38 42 44 36 13 34 13 70 0z"/>
<path d="M3206 1369 c-53 -13 -93 -43 -118 -92 -19 -36 -22 -58 -22 -147 0
-118 18 -170 73 -209 66 -47 186 -47 253 0 54 39 72 91 72 209 0 89 -3 111
-22 147 -26 50 -64 79 -123 92 -51 12 -61 12 -113 0z m92 -90 c43 -15 62 -61
62 -149 0 -45 -6 -85 -16 -105 -32 -67 -126 -67 -158 -1 -21 45 -21 167 0 211
9 19 28 38 42 44 36 13 34 13 70 0z"/>
<path d="M3882 1370 c-114 -16 -103 23 -100 -333 l3 -312 50 0 50 0 3 81 3 81
72 -1 c81 0 119 15 160 64 34 40 47 89 47 180 0 91 -13 140 -47 180 -49 58
-121 76 -241 60z m133 -86 c31 -12 45 -59 45 -154 0 -95 -14 -142 -45 -154 -9
-3 -41 -6 -71 -6 l-54 0 0 160 0 160 54 0 c30 0 62 -3 71 -6z"/>
<path d="M4620 1373 c-97 -9 -100 -11 -100 -52 l0 -37 90 4 c112 6 140 -8 140
-67 l0 -38 -79 -7 c-43 -4 -94 -15 -112 -25 -85 -44 -93 -193 -13 -246 35 -23
124 -24 176 -2 32 13 37 14 42 1 4 -11 18 -14 48 -12 l43 3 0 192 c0 179 -1
193 -21 220 -40 53 -115 76 -214 66z m130 -321 c0 -53 -2 -60 -25 -70 -34 -16
-98 -15 -113 0 -13 13 -16 77 -4 94 14 21 48 33 95 34 l47 0 0 -58z"/>
<path d="M5110 1371 c-101 -21 -150 -100 -150 -241 0 -167 65 -244 206 -243
102 1 114 6 114 53 l0 38 -73 -5 c-68 -5 -75 -4 -102 20 -30 25 -30 26 -30
137 0 111 0 112 30 137 27 24 34 25 102 20 l73 -5 0 39 c0 32 -4 39 -22 43
-51 11 -115 14 -148 7z"/>
<path d="M5492 1368 c-66 -14 -117 -71 -132 -145 -13 -61 -8 -171 11 -220 13
-35 55 -80 94 -101 32 -17 166 -22 238 -8 36 7 37 8 37 48 l0 41 -90 -6 c-129
-10 -175 12 -187 87 l-6 35 149 3 149 3 -2 67 c-4 113 -50 176 -144 197 -51
12 -60 12 -117 -1z m97 -89 c31 -11 61 -52 61 -84 0 -12 -16 -15 -95 -15 -103
0 -107 3 -83 56 7 15 26 33 43 40 37 16 35 16 74 3z"/>
<path d="M6496 1369 c-53 -13 -93 -43 -118 -92 -19 -36 -22 -58 -22 -147 0
-118 18 -170 73 -209 66 -47 186 -47 253 0 54 39 72 91 72 209 0 89 -3 111
-22 147 -26 50 -64 79 -123 92 -51 12 -61 12 -113 0z m92 -90 c43 -15 62 -61
62 -149 0 -45 -6 -85 -16 -105 -32 -67 -126 -67 -158 -1 -21 45 -21 167 0 211
9 19 28 38 42 44 36 13 34 13 70 0z"/>
<path d="M7712 1368 c-66 -14 -117 -71 -132 -145 -13 -61 -8 -171 11 -220 13
-35 55 -80 94 -101 32 -17 166 -22 238 -8 36 7 37 8 37 48 l0 41 -90 -6 c-129
-10 -175 12 -187 87 l-6 35 149 3 149 3 -2 67 c-4 113 -50 176 -144 197 -51
12 -60 12 -117 -1z m97 -89 c31 -11 61 -52 61 -84 0 -12 -16 -15 -95 -15 -103
0 -107 3 -83 56 7 15 26 33 43 40 37 16 35 16 74 3z"/>
<path d="M8265 1371 c-16 -4 -40 -13 -53 -20 -20 -11 -26 -10 -36 4 -8 12 -23
16 -51 13 l-40 -3 0 -235 0 -235 50 0 50 0 3 181 2 181 38 11 c20 7 48 13 62
14 22 3 25 7 25 47 0 48 -5 52 -50 42z"/>
<path d="M2702 1360 c-107 -22 -159 -117 -118 -215 13 -30 13 -38 0 -63 -16
-33 -10 -85 12 -103 11 -9 10 -16 -7 -40 -42 -59 -29 -138 31 -180 36 -27 148
-41 219 -30 80 13 120 35 137 76 18 44 18 59 -2 100 -19 40 -72 65 -194 90
-101 21 -122 31 -118 53 3 13 19 16 108 16 91 1 110 4 141 24 54 33 76 102 55
173 -6 22 -4 27 14 32 17 4 21 12 18 39 l-3 33 -125 2 c-69 0 -144 -3 -168 -7z
m151 -101 c9 -12 17 -36 17 -55 0 -44 -30 -64 -95 -64 -68 0 -95 20 -95 69 0
59 38 84 115 75 24 -3 47 -13 58 -25z m-48 -355 c66 -18 77 -27 73 -55 -6 -46
-101 -65 -173 -35 -31 13 -35 19 -35 53 0 67 16 71 135 37z"/>
</g>
</svg>
